<svg width="22" height="20" viewBox="0 0 22 20" fill="none" xmlns="http://www.w3.org/2000/svg">
    <path
        d="M4.64 15.625H2C1.76718 15.6251 1.54005 15.553 1.34987 15.4187C1.15969 15.2844 1.01581 15.0944 0.938001 14.875H4.29505C4.3945 14.875 4.48988 14.8355 4.56021 14.7652C4.63054 14.6948 4.67005 14.5995 4.67005 14.5C4.67005 14.4005 4.63054 14.3052 4.56021 14.2348C4.48988 14.1645 4.3945 14.125 4.29505 14.125H0.500001C0.450747 14.125 0.401971 14.1347 0.356461 14.1535C0.310951 14.1723 0.2696 14.1999 0.234772 14.2348C0.199945 14.2696 0.172323 14.3109 0.153488 14.3565C0.134653 14.402 0.124973 14.4507 0.125001 14.5C0.124727 14.7463 0.173038 14.9902 0.267168 15.2179C0.361299 15.4455 0.4994 15.6523 0.673564 15.8264C0.847729 16.0006 1.05454 16.1387 1.28215 16.2328C1.50975 16.327 1.7537 16.3753 2 16.375H4.64C4.73946 16.375 4.83484 16.3355 4.90517 16.2652C4.97549 16.1948 5.015 16.0995 5.015 16C5.015 15.9005 4.97549 15.8052 4.90517 15.7348C4.83484 15.6645 4.73946 15.625 4.64 15.625Z"
        fill="#FFFFFF" />
    <path
        d="M21.501 14.125H17.7063C17.6068 14.125 17.5115 14.1645 17.4411 14.2348C17.3708 14.3052 17.3313 14.4005 17.3313 14.5C17.3313 14.5995 17.3708 14.6948 17.4411 14.7652C17.5115 14.8355 17.6068 14.875 17.7063 14.875H21.0615C20.9838 15.0942 20.8402 15.284 20.6503 15.4183C20.4604 15.5526 20.2336 15.6248 20.001 15.625H17.3613C17.2619 15.625 17.1665 15.6645 17.0962 15.7348C17.0258 15.8052 16.9863 15.9005 16.9863 16C16.9863 16.0995 17.0258 16.1948 17.0962 16.2652C17.1665 16.3355 17.2619 16.375 17.3613 16.375H20.001C20.4981 16.3745 20.9747 16.1768 21.3262 15.8252C21.6777 15.4737 21.8755 14.9971 21.876 14.5C21.876 14.4507 21.8663 14.402 21.8475 14.3565C21.8287 14.3109 21.801 14.2696 21.7662 14.2348C21.7314 14.1999 21.69 14.1723 21.6445 14.1535C21.599 14.1347 21.5502 14.125 21.501 14.125Z"
        fill="#FFFFFF" />
    <path
        d="M4.43493 4.79981L4.36719 4.86719C2.61571 6.631 1.63038 9.01431 1.625 11.5V13C1.62497 13.0493 1.63465 13.098 1.65349 13.1435C1.67232 13.1891 1.69994 13.2304 1.73477 13.2652C1.7696 13.3001 1.81095 13.3277 1.85646 13.3465C1.90197 13.3654 1.95075 13.375 2 13.375H4.29504C4.3945 13.375 4.48988 13.3355 4.56021 13.2652C4.63054 13.1948 4.67004 13.0995 4.67004 13C4.67004 12.9005 4.63054 12.8052 4.56021 12.7348C4.48988 12.6645 4.3945 12.625 4.29504 12.625H2.375V11.5C2.37974 9.21416 3.28527 7.02231 4.89526 5.39966L4.96521 5.33008C5.0006 5.29539 5.02877 5.25403 5.04808 5.20839C5.0674 5.16275 5.07747 5.11373 5.07772 5.06417C5.07797 5.01461 5.06839 4.9655 5.04954 4.91966C5.03069 4.87383 5.00294 4.83218 4.9679 4.79714C4.93286 4.7621 4.89121 4.73435 4.84538 4.7155C4.79954 4.69665 4.75043 4.68707 4.70087 4.68732C4.65131 4.68757 4.60229 4.69764 4.55665 4.71696C4.51101 4.73627 4.46962 4.76441 4.43493 4.79981Z"
        fill="#FFFFFF" />
    <path
        d="M7.27713 3.72273C8.59138 3.09115 10.0444 2.80345 11.5002 2.88658C12.9559 2.96971 14.3668 3.42095 15.6006 4.19804C16.8344 4.97513 17.8508 6.05264 18.5546 7.32967C19.2584 8.6067 19.6266 10.0415 19.6247 11.4996V12.6246H17.705C17.6055 12.6246 17.5102 12.6641 17.4398 12.7344C17.3695 12.8048 17.33 12.9001 17.33 12.9996C17.33 13.099 17.3695 13.1944 17.4398 13.2648C17.5102 13.3351 17.6055 13.3746 17.705 13.3746H19.9997C20.0489 13.3746 20.0977 13.3649 20.1432 13.3461C20.1887 13.3273 20.2301 13.2996 20.2649 13.2648C20.2997 13.23 20.3273 13.1886 20.3462 13.1431C20.365 13.0976 20.3747 13.0488 20.3747 12.9996V11.4996C20.3691 9.01358 19.3835 6.63004 17.6317 4.86604C16.3272 3.56028 14.6652 2.67011 12.8554 2.30783C12.8106 1.84537 12.5948 1.4163 12.2502 1.10466C11.9056 0.79302 11.457 0.621273 10.9924 0.623061C10.5278 0.624849 10.0806 0.800043 9.73838 1.11432C9.39618 1.42861 9.18365 1.85933 9.14243 2.32212C8.38512 2.47217 7.64934 2.71556 6.95194 3.04671C6.90738 3.06795 6.86745 3.09779 6.83445 3.1345C6.80144 3.17121 6.776 3.21407 6.7596 3.26063C6.74319 3.30719 6.73614 3.35653 6.73884 3.40583C6.74155 3.45512 6.75396 3.50339 6.77536 3.54788C6.79676 3.59237 6.82673 3.63219 6.86355 3.66507C6.90037 3.69795 6.94333 3.72324 6.98994 3.73948C7.03656 3.75573 7.08592 3.76261 7.13521 3.75974C7.18449 3.75686 7.23272 3.74429 7.27713 3.72273ZM10.9997 1.37313C11.2322 1.37337 11.4589 1.44554 11.6488 1.57976C11.8387 1.71397 11.9824 1.90364 12.0602 2.12276L9.93912 2.12201C10.0171 1.90305 10.1608 1.71355 10.3507 1.57949C10.5406 1.44542 10.7672 1.37334 10.9997 1.37313Z"
        fill="#FFFFFF" />
    <path
        d="M6.24819 7.24942C6.32728 7.16116 6.40883 7.07498 6.49282 6.99088C7.16587 6.31959 7.97984 5.80646 8.87575 5.48868C8.9222 5.47228 8.96497 5.44689 9.00162 5.41396C9.03826 5.38103 9.06806 5.34121 9.08932 5.29676C9.11057 5.25232 9.12286 5.20412 9.12549 5.15493C9.12812 5.10573 9.12103 5.0565 9.10463 5.01004C9.08823 4.96359 9.06284 4.92082 9.02991 4.88417C8.99699 4.84753 8.95716 4.81773 8.91272 4.79647C8.86827 4.77522 8.82007 4.76293 8.77088 4.7603C8.72168 4.75767 8.67245 4.76476 8.626 4.78116C7.62459 5.13647 6.71479 5.71014 5.96254 6.4606C5.86842 6.55435 5.77736 6.65054 5.68935 6.74917C5.62301 6.82328 5.58883 6.92071 5.59432 7.02001C5.59982 7.11932 5.64454 7.21238 5.71864 7.27872C5.79275 7.34506 5.89017 7.37924 5.98948 7.37374C6.08879 7.36825 6.18185 7.32352 6.24819 7.24942Z"
        fill="#FFFFFF" />
    <path
        d="M10.9981 19.3785H10.993C9.92958 19.3773 8.88839 19.0741 7.99059 18.5043C7.09279 17.9344 6.37532 17.1212 5.92168 16.1595C5.67505 15.6519 5.51206 15.1077 5.43901 14.5481C5.35045 14.015 5.35107 13.4708 5.44084 12.9379C5.63306 11.6018 6.3 10.3797 7.31958 9.49517C8.33915 8.61064 9.64318 8.12286 10.993 8.12111H10.9981C11.7378 8.11942 12.4704 8.26446 13.1536 8.54783C13.8369 8.83121 14.4571 9.24729 14.9784 9.77199C15.8357 10.6317 16.3913 11.7461 16.5619 12.9482C16.6419 13.4811 16.6416 14.023 16.5612 14.5558C16.4876 15.114 16.3246 15.6567 16.0785 16.1631C15.6234 17.1254 14.9042 17.9385 14.0047 18.5078C13.1052 19.0771 12.0626 19.379 10.9981 19.3785ZM10.9981 8.87114H10.9937C9.82299 8.87269 8.69208 9.29619 7.80832 10.064C6.92456 10.8318 6.34718 11.8924 6.18206 13.0514C6.10466 13.5103 6.10415 13.9789 6.18056 14.4379C6.24329 14.9236 6.3844 15.3959 6.5984 15.8365C6.99112 16.6705 7.61279 17.3758 8.39096 17.8702C9.16913 18.3645 10.0718 18.6275 10.9937 18.6285H10.9981C11.921 18.6291 12.8251 18.3673 13.6048 17.8735C14.3845 17.3797 15.0077 16.6744 15.4017 15.8398C15.6145 15.4025 15.7552 14.9336 15.8185 14.4515C15.8893 13.989 15.8898 13.5185 15.82 13.0558C15.677 12.0124 15.195 11.0449 14.4482 10.3023C13.9962 9.84753 13.4586 9.48689 12.8664 9.24124C12.2742 8.99559 11.6392 8.8698 10.9981 8.87114ZM10.9955 17.874C10.1872 17.875 9.39655 17.6369 8.72319 17.1896C8.67696 17.1589 8.63814 17.1182 8.60952 17.0706C8.5809 17.0231 8.5632 16.9697 8.5577 16.9145C8.5522 16.8592 8.55904 16.8034 8.57771 16.7511C8.59639 16.6989 8.62644 16.6514 8.6657 16.6121L13.863 11.4148C13.9022 11.3756 13.9496 11.3456 14.0018 11.327C14.0541 11.3083 14.1098 11.3014 14.165 11.3068C14.2201 11.3123 14.2734 11.3299 14.321 11.3583C14.3686 11.3868 14.4093 11.4255 14.4401 11.4716C14.732 11.9122 14.9366 12.4048 15.0429 12.9225C15.1512 13.4671 15.1514 14.0276 15.0436 14.5723L15.0429 14.5774C14.9176 15.1766 14.6606 15.7403 14.2907 16.2279C14.1788 16.3866 14.0525 16.5345 13.9135 16.67C13.5301 17.0525 13.075 17.3558 12.5743 17.5624C12.0737 17.769 11.5372 17.8749 10.9955 17.874ZM9.54314 16.7952C10.1727 17.0954 10.8796 17.1935 11.5671 17.0762C12.2546 16.9588 12.8889 16.6317 13.3832 16.1397C13.4939 16.032 13.5944 15.9143 13.6835 15.7881C13.9904 15.3857 14.2038 14.9199 14.3083 14.4247C14.4558 13.7045 14.3637 12.9557 14.0461 12.2927L9.54314 16.7952ZM7.87322 16.1946C7.86113 16.1946 7.84868 16.1939 7.83623 16.1928C7.78102 16.1873 7.72772 16.1697 7.68016 16.1411C7.6326 16.1125 7.59197 16.0738 7.5612 16.0276C7.26932 15.5873 7.0648 15.095 6.95879 14.5774C6.84233 14.0317 6.84233 13.4675 6.95879 12.9218C7.09292 12.2597 7.38784 11.6407 7.81754 11.1194C8.24725 10.5981 8.79856 10.1905 9.42291 9.93247C10.0473 9.67444 10.7255 9.57391 11.3978 9.63974C12.0702 9.70557 12.716 9.93574 13.2785 10.31C13.3246 10.3409 13.3633 10.3816 13.3918 10.4292C13.4203 10.4768 13.4379 10.5301 13.4433 10.5854C13.449 10.6406 13.4424 10.6964 13.4237 10.7486C13.4051 10.8009 13.375 10.8484 13.3356 10.8875L8.13835 16.0848C8.06803 16.1551 7.97266 16.1946 7.87322 16.1946ZM11.001 10.3737C10.2221 10.3711 9.46643 10.639 8.8631 11.1316C8.25976 11.6243 7.84619 12.3112 7.69304 13.0749C7.59789 13.5188 7.59776 13.9778 7.69268 14.4218V14.4229C7.74887 14.6938 7.83714 14.957 7.95561 15.207L12.4582 10.7044C12.0034 10.4864 11.5054 10.3734 11.001 10.3737Z"
        fill="#FFFFFF" />
    <path
        d="M5.80273 4.52539C6.00984 4.52539 6.17773 4.3575 6.17773 4.15039C6.17773 3.94328 6.00984 3.77539 5.80273 3.77539C5.59563 3.77539 5.42773 3.94328 5.42773 4.15039C5.42773 4.3575 5.59563 4.52539 5.80273 4.52539Z"
        fill="#FFFFFF" />
</svg>
