<svg width="30" height="28" viewBox="0 0 30 28" fill="none" xmlns="http://www.w3.org/2000/svg">
    <path
        d="M28.0001 24.666V27.3327H1.33339V24.666H2.66673V15.6556C1.05874 14.5794 6.10352e-05 12.7463 6.10352e-05 10.666C6.10352e-05 9.56316 0.299301 8.50096 0.844354 7.59596L4.46046 1.33268C4.69863 0.920149 5.13881 0.666016 5.61515 0.666016H23.7183C24.1946 0.666016 24.6349 0.920149 24.873 1.33268L28.4767 7.57498C29.0342 8.50096 29.3334 9.56316 29.3334 10.666C29.3334 12.7463 28.2747 14.5794 26.6667 15.6556V24.666H28.0001ZM6.38493 3.33268L3.14137 8.9503C2.83218 9.46392 2.66673 10.0512 2.66673 10.666C2.66673 12.507 4.15911 13.9994 6.00006 13.9994C7.37467 13.9994 8.59295 13.1598 9.09578 11.9054C9.54326 10.789 11.1235 10.789 11.571 11.9054C12.0738 13.1598 13.2921 13.9994 14.6667 13.9994C16.0414 13.9994 17.2597 13.1598 17.7625 11.9054C18.2099 10.789 19.7902 10.789 20.2377 11.9054C20.7405 13.1598 21.9587 13.9994 23.3334 13.9994C25.1743 13.9994 26.6667 12.507 26.6667 10.666C26.6667 10.0512 26.5013 9.46392 26.1797 8.9293L22.9485 3.33268H6.38493Z"
        fill="#FFFFFF" />
</svg>
